<?xml version="1.0" encoding="iso-8859-1"?>
<!-- Uploaded to: SVG Repo, www.svgrepo.com, Generator: SVG Repo Mixer Tools -->
<svg fill="#000000" height="800px" width="800px" version="1.1" id="Layer_1" xmlns="http://www.w3.org/2000/svg" xmlns:xlink="http://www.w3.org/1999/xlink" 
	 viewBox="0 0 503.996 503.996" xml:space="preserve">
<g>
	<g>
		<path d="M445.062,385.748h-3.864c-6.512,0-11.804-5.156-11.804-11.668l-0.008-157.864
			c-0.172-91.78-70.652-167.388-160.256-175.888c4.236-4.284,6.86-10.148,6.86-16.636C275.99,10.62,265.358,0,252.286,0
			c-13.072,0-23.704,10.636-23.704,23.708c0,6.492,2.468,12.376,6.708,16.66c-89.58,8.52-160.376,84.152-160.376,175.928V374.22
			c0,6.512-4.98,11.524-11.492,11.524h-4.388c-10.852,0-19.54,9.108-19.54,19.956v31.116c0,10.848,8.684,19.76,19.54,19.76h142.1
			c2.02,27.548,24.164,47.42,51.156,47.42c26.988,0,49.132-19.872,51.152-47.42h141.624c10.848,0,19.436-8.912,19.436-19.76V405.7
			C464.498,394.856,455.91,385.748,445.062,385.748z M252.038,90.372C182.606,90.368,126.11,146.86,126.11,216.296
			c0,4.344-3.52,7.872-7.868,7.872c-4.34,0-7.872-3.524-7.872-7.872c0-78.116,63.556-141.668,141.668-141.668
			c4.352,0,7.872,3.524,7.872,7.872S256.39,90.372,252.038,90.372z M252.282,31.676c-4.392,0-7.964-3.572-7.964-7.964
			c0-4.392,3.572-7.964,7.964-7.964c4.392,0,7.96,3.572,7.96,7.964C260.242,28.104,256.67,31.676,252.282,31.676z"/>
	</g>
</g>
</svg>